<svg width="832" height="836" viewBox="0 0 832 836" fill="none" xmlns="http://www.w3.org/2000/svg">
<path d="M416.269 597.683V445.925C361.029 448.736 320.046 483.42 291.519 521.013C276.213 541.183 264.957 561.63 257.522 577.085C253.815 584.792 251.084 591.206 249.293 595.651C248.399 597.871 247.739 599.596 247.313 600.742C247.1 601.314 246.946 601.742 246.849 602.014C246.801 602.15 246.766 602.248 246.746 602.305C246.739 602.325 246.733 602.34 246.729 602.349C244.154 609.822 236.014 613.791 228.548 611.214C221.081 608.637 217.116 600.49 219.69 593.017L233.21 597.683C219.69 593.016 219.691 593.01 219.693 593.003C219.694 593 219.697 592.995 219.699 592.989C219.703 592.978 219.707 592.962 219.713 592.945C219.724 592.911 219.741 592.868 219.76 592.813C219.798 592.704 219.851 592.553 219.919 592.363C220.055 591.984 220.251 591.445 220.506 590.759C221.017 589.385 221.769 587.418 222.766 584.944C224.759 579.997 227.74 573.006 231.752 564.667C239.755 548.029 251.96 525.813 268.74 503.7C299.849 462.705 348.331 420.082 416.269 417.264V374.063C396.218 361.05 377.101 349.033 362.538 339.993C354.479 334.99 347.822 330.903 343.184 328.069C340.865 326.653 339.049 325.549 337.818 324.801C337.202 324.428 336.733 324.142 336.418 323.951C336.261 323.857 336.142 323.787 336.064 323.739C336.024 323.715 335.993 323.697 335.974 323.686C335.965 323.68 335.959 323.675 335.955 323.672L335.949 323.669C330.022 320.093 327.502 312.78 329.969 306.308C332.436 299.836 339.181 296.061 345.982 297.345C355.263 299.098 367.976 297.711 382.527 292.38C396.896 287.116 412.11 278.338 425.993 266.605C453.886 243.03 474.906 208.916 474.906 169.705C474.906 110.427 433.801 74.895 376.423 54.4046C324.398 35.8258 262.492 31.2289 217.478 32.9621V597.683C217.478 605.588 211.075 611.997 203.177 611.997C195.278 611.997 188.875 605.588 188.875 597.683V19.4116C188.875 11.9023 194.673 5.66962 202.157 5.1343C250.093 1.70741 323.741 5.19639 386.038 27.4435C448.316 49.6841 503.509 92.6401 503.509 169.705C503.509 219.573 476.856 261.084 444.445 288.478C428.176 302.228 410.078 312.771 392.359 319.263C390.431 319.97 388.494 320.627 386.555 321.242C396.041 327.171 406.857 333.985 418.278 341.304C420.773 337.116 425.345 334.312 430.571 334.312C438.469 334.312 444.872 340.721 444.872 348.626V358.561C481.73 382.811 520.617 409.904 538.246 427.429C542.583 431.741 547.632 437.345 549.821 443.367C551.008 446.631 552.284 452.663 548.804 458.737C545.379 464.717 539.617 466.739 536.187 467.451C529.687 468.801 521.496 467.591 513.327 465.757C504.447 463.764 493.045 460.39 478.867 455.545C466.943 451.47 455.617 448.787 444.872 447.273V597.683C444.872 605.588 438.469 611.997 430.571 611.997C422.672 611.997 416.27 605.588 416.269 597.683ZM615.061 311.41C615.061 179.686 527.812 71.4947 482.171 32.2072L480.029 30.3901L479.478 29.9008C473.929 24.7535 473.328 16.0985 478.238 10.2252C483.148 4.35221 491.767 3.41615 497.808 7.97467L498.386 8.43315L500.69 10.3901C549.832 52.6603 643.664 168.097 643.664 311.41C643.664 457.103 546.72 570.162 498.112 608.883C491.932 613.805 482.936 612.781 478.017 606.596C473.099 600.411 474.123 591.407 480.302 586.484C525.131 550.773 615.061 445.119 615.061 311.41ZM444.872 418.399C458.716 420.053 473.128 423.333 488.107 428.452C492.517 429.96 496.578 431.287 500.302 432.458C485.584 420.897 465.839 407.004 444.872 392.925V418.399Z" fill="url(#paint0_linear_174_412)" stroke="black" stroke-opacity="0.07" stroke-width="6.07582" stroke-linecap="round" stroke-linejoin="round"/>
<path d="M124.832 835.832C110.777 835.832 98.5547 835.832 88.166 835.832C77.981 835.832 69.4256 835.73 62.4997 835.526C55.7776 835.526 50.2777 835.424 46 835.22V708.672C46 702.763 47.2222 698.993 49.6666 697.362C52.3147 695.732 55.8795 694.815 60.3609 694.611C65.2497 694.611 69.833 694.611 74.1107 694.611C78.3884 694.408 82.3605 694.306 86.0272 694.306C89.6938 694.102 93.3604 694 97.027 694C100.694 694 104.564 694 108.638 694C113.323 694 118.11 694.102 122.999 694.306C127.888 694.306 132.573 694.408 137.054 694.611C141.536 694.611 145.1 694.713 147.748 694.917C159.156 695.732 167.405 698.993 172.498 704.699C177.794 710.201 180.442 718.25 180.442 728.847C180.442 736.794 179.118 743.213 176.47 748.104C174.026 752.791 170.868 756.153 166.998 758.191C163.128 760.229 159.359 761.452 155.693 761.859C159.359 761.859 162.924 762.267 166.387 763.082C170.054 763.693 173.313 765.222 176.165 767.667C179.22 769.908 181.665 773.373 183.498 778.06C185.331 782.543 186.248 788.656 186.248 796.4C186.248 805.774 184.516 813.212 181.053 818.714C177.591 824.012 173.007 827.884 167.304 830.33C161.6 832.775 155.082 834.303 147.748 834.915C140.415 835.526 132.776 835.832 124.832 835.832ZM118.721 823.605C124.221 823.605 129.517 823.401 134.61 822.993C139.906 822.586 144.591 821.567 148.665 819.937C152.943 818.307 156.304 815.555 158.748 811.684C161.193 807.812 162.415 802.412 162.415 795.483C162.415 785.498 160.174 778.671 155.693 775.003C151.415 771.131 142.86 769.195 130.026 769.195H82.3605C79.7124 769.195 77.981 768.176 77.1662 766.139C76.3514 764.101 75.944 761.044 75.944 756.968H129.11C133.999 756.968 138.48 756.357 142.554 755.134C146.832 753.912 150.295 751.364 152.943 747.493C155.591 743.417 156.915 737.507 156.915 729.764C156.915 722.631 155.285 717.129 152.026 713.257C148.767 709.182 143.471 706.838 136.137 706.227C132.063 705.819 127.582 705.616 122.693 705.616C117.804 705.412 113.017 705.31 108.332 705.31C102.221 705.31 96.4159 705.31 90.916 705.31C85.6198 705.31 81.1383 705.412 77.4717 705.616C75.231 705.616 73.2959 706.329 71.6663 707.755C70.2404 708.978 69.5274 711.118 69.5274 714.174V822.993C70.9533 822.993 72.7866 823.095 75.0273 823.299C77.4717 823.299 80.4254 823.401 83.8883 823.605C87.5549 823.605 92.1382 823.605 97.6381 823.605C103.342 823.605 110.369 823.605 118.721 823.605Z" fill="white"/>
<path d="M237.817 835.22C237.817 813.416 237.817 791.611 237.817 769.807C237.817 748.002 237.817 726.197 237.817 704.393C237.817 702.151 237.918 700.419 238.122 699.196C238.53 697.77 239.243 696.649 240.261 695.834C241.483 695.019 243.418 694.611 246.067 694.611H261.344V835.22H237.817Z" fill="white"/>
<path d="M465.808 766.139C465.808 782.849 463.974 795.992 460.308 805.57C456.641 814.944 451.345 821.771 444.419 826.05C437.697 830.33 429.345 833.081 419.364 834.303C409.586 835.322 398.485 835.832 386.059 835.832C380.152 835.832 373.939 835.73 367.42 835.526C361.106 835.526 354.791 835.526 348.476 835.526C342.365 835.526 336.763 835.424 331.671 835.22C326.782 835.22 322.81 835.22 319.754 835.22V714.174C319.754 707.653 320.569 702.864 322.199 699.808C324.032 696.751 328.615 695.019 335.949 694.611C339.208 694.408 343.485 694.306 348.782 694.306C354.078 694.306 359.68 694.306 365.587 694.306C371.698 694.102 377.605 694 383.309 694C389.013 694 393.8 694.102 397.67 694.306C408.873 694.713 418.651 695.63 427.003 697.057C435.558 698.483 442.688 701.54 448.391 706.227C454.299 710.914 458.678 718.046 461.53 727.624C464.382 736.998 465.808 749.836 465.808 766.139ZM343.282 822.076C344.708 822.076 347.254 822.178 350.921 822.382C354.791 822.382 358.967 822.382 363.448 822.382C367.93 822.382 372.207 822.484 376.281 822.688C380.559 822.688 383.818 822.688 386.059 822.688C396.448 822.688 405.207 821.975 412.336 820.548C419.466 819.122 425.169 816.472 429.447 812.601C433.929 808.525 437.086 802.819 438.919 795.483C440.956 787.943 441.975 778.162 441.975 766.139C441.975 749.836 440.243 737.507 436.78 729.152C433.521 720.593 427.919 714.786 419.975 711.729C412.234 708.672 401.336 707.144 387.281 707.144C384.429 707.144 380.355 707.144 375.059 707.144C369.967 707.144 364.874 707.246 359.782 707.45C354.689 707.45 350.717 707.653 347.865 708.061C346.439 708.876 345.319 709.997 344.504 711.423C343.689 712.646 343.282 715.193 343.282 719.065V822.076Z" fill="white"/>
<path d="M526.18 821.465H628.54C628.54 824.726 628.438 827.273 628.234 829.107C628.03 830.941 627.521 832.367 626.706 833.386C625.892 834.201 624.568 834.711 622.734 834.915C621.105 835.118 618.66 835.22 615.401 835.22H494.708V820.548C494.912 820.548 496.644 818.714 499.903 815.046C503.162 811.378 507.542 806.487 513.041 800.374C518.541 794.057 524.551 787.23 531.069 779.894C537.791 772.354 544.615 764.712 551.541 756.968C558.467 749.225 564.883 741.99 570.791 735.266C576.902 728.337 582.096 722.529 586.374 717.842C588.614 715.601 590.55 713.665 592.179 712.035C593.809 710.201 594.929 708.978 595.54 708.367H500.208C500.208 704.902 500.31 702.253 500.514 700.419C500.718 698.381 501.431 696.955 502.653 696.14C504.079 695.121 506.319 694.611 509.375 694.611H626.706C626.706 694.815 626.605 695.732 626.401 697.362C626.401 698.993 626.095 701.132 625.484 703.781C625.077 706.227 624.16 708.876 622.734 711.729C621.308 714.378 619.271 716.925 616.623 719.371L529.236 819.325L526.18 821.465Z" fill="white"/>
<path d="M704.779 835.22V778.06L653.141 702.253L647.641 694.611H678.807L721.585 761.553L764.973 694.611H786.361L779.639 703.17L728.001 778.06V824.522C728.205 827.171 728.001 829.311 727.39 830.941C726.779 832.367 725.76 833.488 724.335 834.303C722.909 834.915 720.668 835.22 717.612 835.22H704.779Z" fill="white"/>
<defs>
<linearGradient id="paint0_linear_174_412" x1="416.269" y1="18.3151" x2="416.269" y2="597.683" gradientUnits="userSpaceOnUse">
<stop stop-color="#B5920A"/>
<stop offset="0.5" stop-color="#BEA74E"/>
<stop offset="1" stop-color="#6F5903"/>
</linearGradient>
</defs>
</svg>
