<svg width="2524" height="728" viewBox="0 0 2524 728" fill="none" xmlns="http://www.w3.org/2000/svg">
<path d="M273.283 707.046V527.332C207.866 530.661 159.334 571.735 125.552 616.252C107.427 640.138 94.097 664.352 85.2929 682.653C80.9026 691.78 77.6688 699.376 75.5481 704.639C74.4887 707.269 73.7073 709.311 73.2029 710.668C72.9509 711.346 72.7688 711.853 72.6538 712.174C72.5963 712.335 72.5548 712.452 72.5314 712.519C72.5229 712.543 72.5155 712.56 72.5115 712.572C69.4619 721.421 59.823 726.121 50.9809 723.07C42.139 720.017 37.4429 710.37 40.4919 701.521L56.5017 707.046C40.4912 701.519 40.4927 701.511 40.4952 701.504C40.4964 701.5 40.4996 701.494 40.5018 701.488C40.5066 701.474 40.5113 701.455 40.5183 701.435C40.5322 701.395 40.552 701.343 40.5745 701.279C40.6199 701.15 40.6827 700.971 40.7631 700.746C40.9239 700.296 41.1556 699.658 41.4577 698.846C42.0623 697.22 42.9532 694.89 44.1338 691.96C46.494 686.101 50.0245 677.823 54.775 667.948C64.253 648.245 78.7054 621.937 98.5771 595.75C135.416 547.203 192.829 496.729 273.283 493.392V442.233C249.538 426.823 226.9 412.592 209.654 401.886C200.11 395.962 192.226 391.122 186.734 387.766C183.988 386.089 181.838 384.782 180.379 383.896C179.651 383.454 179.095 383.116 178.722 382.89C178.537 382.778 178.395 382.695 178.302 382.638C178.256 382.61 178.219 382.589 178.196 382.575C178.186 382.569 178.179 382.562 178.173 382.559L178.167 382.555C171.147 378.32 168.163 369.661 171.085 361.997C174.006 354.332 181.994 349.862 190.048 351.383C201.038 353.458 216.094 351.816 233.324 345.503C250.341 339.269 268.357 328.874 284.797 314.979C317.829 287.061 342.721 246.664 342.721 200.23C342.721 130.032 294.044 87.9546 226.097 63.6897C164.488 41.6885 91.1784 36.2447 37.8721 38.2972V707.046C37.8719 716.407 30.2895 723.996 20.936 723.996C11.5826 723.996 4.00011 716.407 4 707.046V22.2506C4 13.358 10.8663 5.97719 19.7287 5.34325C76.4948 1.28509 163.71 5.41678 237.482 31.762C311.233 58.0996 376.593 108.969 376.593 200.23C376.593 259.284 345.03 308.442 306.649 340.881C287.383 357.165 265.951 369.65 244.968 377.338C242.685 378.174 240.391 378.952 238.094 379.682C249.328 386.702 262.137 394.771 275.661 403.439C278.616 398.48 284.031 395.159 290.219 395.159C299.572 395.159 307.155 402.748 307.155 412.109V423.875C350.802 452.592 396.853 484.675 417.729 505.429C422.864 510.535 428.844 517.172 431.436 524.303C432.841 528.168 434.352 535.311 430.232 542.505C426.176 549.585 419.352 551.981 415.291 552.824C407.593 554.422 397.893 552.989 388.22 550.818C377.703 548.457 364.201 544.462 347.411 538.724C333.291 533.898 319.879 530.722 307.155 528.928V707.046C307.155 716.407 299.572 723.996 290.219 723.996C280.865 723.996 273.283 716.407 273.283 707.046ZM508.694 368.038C508.694 212.049 405.373 83.9279 351.324 37.4033L348.787 35.2514L348.135 34.6721C341.564 28.5766 340.852 18.3271 346.667 11.3719C352.481 4.41709 362.688 3.30859 369.841 8.70684L370.526 9.24978L373.255 11.5672C431.45 61.624 542.566 198.325 542.566 368.038C542.566 540.569 427.764 674.455 370.202 720.308C362.884 726.137 352.23 724.925 346.406 717.6C340.581 710.276 341.793 699.613 349.111 693.784C402.198 651.495 508.694 526.378 508.694 368.038ZM307.155 494.736C323.549 496.694 340.615 500.579 358.353 506.641C363.576 508.426 368.386 509.998 372.795 511.385C355.366 497.694 331.984 481.242 307.155 464.57V494.736Z" fill="url(#paint0_linear_176_429)" stroke="black" stroke-opacity="0.07" stroke-width="7" stroke-linecap="round" stroke-linejoin="round"/>
<path d="M889.2 512C859.746 512 834.134 512 812.363 512C791.019 512 773.091 511.787 758.577 511.362C744.49 511.362 732.964 511.149 724 510.724V246.621C724 234.287 726.561 226.42 731.684 223.017C737.233 219.615 744.703 217.701 754.095 217.276C764.34 217.276 773.944 217.276 782.909 217.276C791.873 216.851 800.197 216.638 807.881 216.638C815.565 216.213 823.248 216 830.932 216C838.616 216 846.726 216 855.264 216C865.082 216 875.114 216.213 885.359 216.638C895.604 216.638 905.422 216.851 914.813 217.276C924.204 217.276 931.674 217.489 937.224 217.914C961.129 219.615 978.417 226.42 989.089 238.328C1000.19 249.81 1005.74 266.609 1005.74 288.724C1005.74 305.31 1002.96 318.707 997.413 328.914C992.291 338.695 985.674 345.713 977.563 349.966C969.453 354.218 961.556 356.77 953.872 357.621C961.556 357.621 969.026 358.471 976.283 360.172C983.967 361.448 990.797 364.638 996.773 369.741C1003.18 374.42 1008.3 381.649 1012.14 391.431C1015.98 400.787 1017.9 413.546 1017.9 429.707C1017.9 449.27 1014.27 464.793 1007.02 476.276C999.761 487.333 990.156 495.414 978.204 500.517C966.251 505.621 952.591 508.81 937.224 510.086C921.856 511.362 905.849 512 889.2 512ZM876.394 486.483C887.92 486.483 899.019 486.057 909.69 485.207C920.789 484.356 930.607 482.23 939.145 478.828C948.109 475.425 955.153 469.684 960.275 461.603C965.397 453.523 967.959 442.253 967.959 427.793C967.959 406.954 963.263 392.707 953.872 385.052C944.908 376.971 926.979 372.931 900.086 372.931H800.197C794.648 372.931 791.019 370.805 789.312 366.552C787.604 362.299 786.751 355.92 786.751 347.414H898.165C908.41 347.414 917.801 346.138 926.338 343.586C935.303 341.034 942.56 335.718 948.109 327.638C953.658 319.132 956.433 306.799 956.433 290.638C956.433 275.753 953.018 264.27 946.188 256.19C939.358 247.684 928.259 242.793 912.892 241.517C904.354 240.667 894.963 240.241 884.718 240.241C874.473 239.816 864.442 239.603 854.624 239.603C841.817 239.603 829.651 239.603 818.126 239.603C807.027 239.603 797.636 239.816 789.952 240.241C785.256 240.241 781.201 241.73 777.786 244.707C774.798 247.259 773.304 251.724 773.304 258.103V485.207C776.292 485.207 780.134 485.42 784.83 485.845C789.952 485.845 796.142 486.057 803.399 486.483C811.082 486.483 820.687 486.483 832.213 486.483C844.165 486.483 858.892 486.483 876.394 486.483Z" fill="#F4F4F4"/>
<path d="M1125.97 510.724C1125.97 465.218 1125.97 419.713 1125.97 374.207C1125.97 328.701 1125.97 283.195 1125.97 237.69C1125.97 233.011 1126.18 229.397 1126.61 226.845C1127.46 223.868 1128.96 221.529 1131.09 219.828C1133.65 218.126 1137.71 217.276 1143.26 217.276H1175.27V510.724H1125.97Z" fill="#F4F4F4"/>
<path d="M1603.75 366.552C1603.75 401.425 1599.91 428.856 1592.22 448.845C1584.54 468.408 1573.44 482.655 1558.93 491.586C1544.84 500.517 1527.34 506.259 1506.42 508.81C1485.93 510.937 1462.67 512 1436.63 512C1424.25 512 1411.23 511.787 1397.57 511.362C1384.33 511.362 1371.1 511.362 1357.87 511.362C1345.06 511.362 1333.32 511.149 1322.65 510.724C1312.41 510.724 1304.08 510.724 1297.68 510.724V258.103C1297.68 244.494 1299.39 234.5 1302.8 228.121C1306.64 221.741 1316.25 218.126 1331.62 217.276C1338.45 216.851 1347.41 216.638 1358.51 216.638C1369.61 216.638 1381.35 216.638 1393.73 216.638C1406.53 216.213 1418.91 216 1430.86 216C1442.82 216 1452.85 216.213 1460.96 216.638C1484.44 217.488 1504.93 219.402 1522.43 222.379C1540.36 225.356 1555.3 231.736 1567.25 241.517C1579.63 251.299 1588.81 266.184 1594.78 286.172C1600.76 305.736 1603.75 332.529 1603.75 366.552ZM1346.98 483.293C1349.97 483.293 1355.31 483.506 1362.99 483.931C1371.1 483.931 1379.85 483.931 1389.24 483.931C1398.64 483.931 1407.6 484.144 1416.14 484.569C1425.1 484.569 1431.93 484.569 1436.63 484.569C1458.4 484.569 1476.75 483.08 1491.69 480.103C1506.63 477.126 1518.59 471.598 1527.55 463.517C1536.94 455.011 1543.56 443.103 1547.4 427.793C1551.67 412.057 1553.8 391.644 1553.8 366.552C1553.8 332.529 1550.18 306.799 1542.92 289.362C1536.09 271.5 1524.35 259.379 1507.7 253C1491.48 246.621 1468.64 243.431 1439.19 243.431C1433.21 243.431 1424.67 243.431 1413.58 243.431C1402.9 243.431 1392.23 243.644 1381.56 244.069C1370.89 244.069 1362.56 244.494 1356.59 245.345C1353.6 247.046 1351.25 249.385 1349.54 252.362C1347.84 254.914 1346.98 260.23 1346.98 268.31V483.293Z" fill="#F4F4F4"/>
<path d="M1730.26 482.017H1944.77C1944.77 488.822 1944.56 494.138 1944.13 497.966C1943.7 501.793 1942.63 504.77 1940.93 506.897C1939.22 508.598 1936.45 509.661 1932.6 510.086C1929.19 510.512 1924.07 510.724 1917.24 510.724H1664.31V480.103C1664.74 480.103 1668.37 476.276 1675.2 468.621C1682.03 460.966 1691.21 450.759 1702.73 438C1714.26 424.816 1726.85 410.569 1740.51 395.259C1754.6 379.523 1768.9 363.575 1783.41 347.414C1797.92 331.253 1811.37 316.155 1823.75 302.121C1836.56 287.661 1847.44 275.54 1856.41 265.759C1861.1 261.08 1865.16 257.04 1868.57 253.638C1871.99 249.81 1874.33 247.259 1875.62 245.983H1675.84C1675.84 238.753 1676.05 233.224 1676.48 229.397C1676.91 225.144 1678.4 222.167 1680.96 220.466C1683.95 218.339 1688.64 217.276 1695.05 217.276H1940.93C1940.93 217.701 1940.71 219.615 1940.29 223.017C1940.29 226.42 1939.65 230.885 1938.37 236.414C1937.51 241.517 1935.59 247.046 1932.6 253C1929.62 258.529 1925.35 263.845 1919.8 268.948L1736.67 477.552L1730.26 482.017Z" fill="#F4F4F4"/>
<path d="M2104.54 510.724V391.431L1996.32 233.224L1984.8 217.276H2050.11L2139.75 356.983L2230.68 217.276H2275.5L2261.41 235.138L2153.2 391.431V488.397C2153.63 493.925 2153.2 498.391 2151.92 501.793C2150.64 504.77 2148.5 507.109 2145.52 508.81C2142.53 510.086 2137.83 510.724 2131.43 510.724H2104.54Z" fill="#F4F4F4"/>
<defs>
<linearGradient id="paint0_linear_176_429" x1="273.283" y1="20.952" x2="273.283" y2="707.046" gradientUnits="userSpaceOnUse">
<stop stop-color="#B5920A"/>
<stop offset="0.5" stop-color="#BEA74E"/>
<stop offset="1" stop-color="#6F5903"/>
</linearGradient>
</defs>
</svg>
