<svg width="1848" height="622" viewBox="0 0 1848 622" fill="none" xmlns="http://www.w3.org/2000/svg">
<path d="M233.012 603.893V450.388C177.136 453.232 135.681 488.315 106.826 526.34C91.344 546.743 79.9579 567.425 72.4377 583.058C68.6876 590.854 65.9254 597.342 64.114 601.838C63.2091 604.084 62.5416 605.828 62.1108 606.987C61.8956 607.566 61.74 607.999 61.6418 608.274C61.5926 608.411 61.5572 608.511 61.5372 608.568C61.53 608.589 61.5236 608.603 61.5203 608.613C58.9154 616.172 50.6821 620.187 43.1296 617.58C35.5771 614.973 31.5658 606.733 34.1701 599.174L47.8452 603.893C34.1696 599.173 34.1708 599.166 34.1729 599.16C34.174 599.157 34.1768 599.151 34.1786 599.146C34.1827 599.134 34.1868 599.117 34.1927 599.1C34.2046 599.066 34.2215 599.022 34.2408 598.967C34.2795 598.857 34.3331 598.704 34.4018 598.512C34.5392 598.128 34.7371 597.583 34.9951 596.889C35.5116 595.5 36.2725 593.51 37.2809 591.007C39.297 586.003 42.3126 578.932 46.3703 570.497C54.4661 553.668 66.8109 531.196 83.7846 508.828C115.251 467.361 164.291 424.248 233.012 421.397V377.699C212.73 364.536 193.393 352.38 178.663 343.236C170.51 338.176 163.777 334.042 159.085 331.175C156.74 329.743 154.903 328.626 153.657 327.87C153.035 327.492 152.56 327.203 152.242 327.01C152.083 326.914 151.963 326.843 151.883 326.795C151.843 326.771 151.812 326.753 151.793 326.741C151.783 326.736 151.777 326.73 151.773 326.727L151.767 326.724C145.772 323.107 143.223 315.71 145.718 309.164C148.214 302.617 155.036 298.799 161.916 300.098C171.304 301.87 184.163 300.468 198.881 295.075C213.416 289.75 228.805 280.872 242.848 269.003C271.062 245.156 292.324 210.651 292.324 170.988C292.324 111.028 250.746 75.0862 192.708 54.3599C140.083 35.5673 77.4649 30.9173 31.9324 32.6705V603.893C31.9323 611.89 25.4556 618.372 17.4662 618.372C9.47679 618.372 3.0001 611.89 3 603.893V18.964C3 11.3683 8.86497 5.06385 16.4349 4.52236C64.9227 1.05601 139.419 4.58517 202.433 27.0884C265.428 49.5851 321.256 93.0356 321.256 170.988C321.256 221.43 294.297 263.419 261.513 291.128C245.056 305.036 226.75 315.701 208.827 322.268C206.877 322.982 204.917 323.647 202.956 324.27C212.551 330.266 223.492 337.159 235.044 344.562C237.568 340.326 242.193 337.49 247.479 337.49C255.468 337.49 261.945 343.972 261.945 351.968V362.019C299.226 386.547 338.562 413.952 356.393 431.679C360.78 436.04 365.887 441.709 368.102 447.801C369.302 451.102 370.593 457.203 367.073 463.348C363.609 469.396 357.78 471.442 354.311 472.162C347.736 473.527 339.45 472.303 331.188 470.449C322.205 468.432 310.672 465.02 296.33 460.119C284.269 455.997 272.813 453.283 261.945 451.751V603.893C261.945 611.89 255.468 618.372 247.479 618.372C239.489 618.372 233.013 611.89 233.012 603.893ZM434.092 314.324C434.092 181.083 345.84 71.6467 299.673 31.907L297.506 30.0689L296.949 29.574C291.336 24.3675 290.728 15.6128 295.695 9.67182C300.661 3.73126 309.379 2.78442 315.49 7.39543L316.074 7.85919L318.405 9.83867C368.113 52.5955 463.025 169.361 463.025 314.324C463.025 461.694 364.965 576.055 315.797 615.222C309.546 620.201 300.447 619.165 295.471 612.909C290.497 606.652 291.532 597.545 297.783 592.565C343.128 556.443 434.092 449.573 434.092 314.324ZM261.945 422.545C275.948 424.218 290.525 427.536 305.677 432.714C310.138 434.239 314.246 435.582 318.013 436.766C303.125 425.072 283.153 411.019 261.945 396.778V422.545Z" fill="url(#paint0_linear_174_417)" stroke="black" stroke-opacity="0.07" stroke-width="5.97917" stroke-linecap="round" stroke-linejoin="round"/>
<path d="M663.869 437.292C638.711 437.292 616.833 437.292 598.237 437.292C580.006 437.292 564.692 437.11 552.295 436.747C540.263 436.747 530.418 436.565 522.761 436.202V210.614C522.761 200.079 524.948 193.359 529.324 190.452C534.064 187.546 540.445 185.912 548.467 185.548C557.218 185.548 565.422 185.548 573.079 185.548C580.736 185.185 587.846 185.003 594.409 185.003C600.972 184.64 607.535 184.458 614.099 184.458C620.662 184.458 627.59 184.458 634.882 184.458C643.268 184.458 651.837 184.64 660.588 185.003C669.339 185.003 677.725 185.185 685.747 185.548C693.768 185.548 700.149 185.73 704.889 186.093C725.308 187.546 740.075 193.359 749.191 203.53C758.671 213.338 763.411 227.687 763.411 246.577C763.411 260.744 761.041 272.187 756.301 280.906C751.926 289.261 746.274 295.255 739.346 298.887C732.418 302.52 725.673 304.7 719.11 305.426C725.673 305.426 732.054 306.153 738.252 307.606C744.815 308.696 750.649 311.42 755.754 315.779C761.223 319.775 765.599 325.951 768.881 334.306C772.162 342.298 773.803 353.196 773.803 367C773.803 383.71 770.704 396.969 764.505 406.777C758.307 416.222 750.103 423.124 739.893 427.484C729.684 431.843 718.016 434.567 704.889 435.657C691.763 436.747 678.09 437.292 663.869 437.292ZM652.931 415.496C662.776 415.496 672.256 415.133 681.371 414.406C690.851 413.68 699.238 411.863 706.53 408.957C714.187 406.051 720.204 401.147 724.579 394.245C728.954 387.343 731.142 377.716 731.142 365.365C731.142 347.565 727.131 335.396 719.11 328.857C711.453 321.955 696.138 318.504 673.167 318.504H587.846C583.106 318.504 580.006 316.687 578.548 313.055C577.089 309.422 576.36 303.973 576.36 296.708H671.526C680.277 296.708 688.299 295.618 695.592 293.438C703.249 291.259 709.447 286.718 714.187 279.816C718.927 272.551 721.297 262.016 721.297 248.212C721.297 235.497 718.38 225.689 712.546 218.787C706.712 211.522 697.232 207.344 684.106 206.254C676.814 205.528 668.792 205.165 660.041 205.165C651.29 204.801 642.721 204.62 634.335 204.62C623.396 204.62 613.005 204.62 603.16 204.62C593.68 204.62 585.658 204.801 579.095 205.165C575.084 205.165 571.62 206.436 568.703 208.979C566.151 211.159 564.875 214.973 564.875 220.422V414.406C567.427 414.406 570.709 414.588 574.719 414.951C579.095 414.951 584.382 415.133 590.58 415.496C597.144 415.496 605.348 415.496 615.192 415.496C625.402 415.496 637.981 415.496 652.931 415.496Z" fill="#2A2A2A"/>
<path d="M866.111 436.202C866.111 397.333 866.111 358.463 866.111 319.594C866.111 280.724 866.111 241.855 866.111 202.985C866.111 198.989 866.293 195.901 866.658 193.722C867.387 191.179 868.663 189.181 870.486 187.728C872.674 186.275 876.138 185.548 880.878 185.548H908.224V436.202H866.111Z" fill="#2A2A2A"/>
<path d="M1274.21 313.055C1274.21 342.843 1270.93 366.273 1264.37 383.347C1257.8 400.057 1248.32 412.226 1235.93 419.855C1223.89 427.484 1208.95 432.388 1191.08 434.567C1173.58 436.384 1153.7 437.292 1131.46 437.292C1120.89 437.292 1109.77 437.11 1098.1 436.747C1086.8 436.747 1075.49 436.747 1064.19 436.747C1053.25 436.747 1043.22 436.565 1034.11 436.202C1025.36 436.202 1018.25 436.202 1012.78 436.202V220.422C1012.78 208.797 1014.24 200.261 1017.15 194.812C1020.44 189.363 1028.64 186.275 1041.77 185.548C1047.6 185.185 1055.26 185.003 1064.74 185.003C1074.22 185.003 1084.24 185.003 1094.82 185.003C1105.76 184.64 1116.33 184.458 1126.54 184.458C1136.75 184.458 1145.32 184.64 1152.25 185.003C1172.3 185.73 1189.8 187.365 1204.75 189.907C1220.07 192.45 1232.83 197.899 1243.04 206.254C1253.61 214.61 1261.45 227.324 1266.56 244.397C1271.66 261.108 1274.21 283.993 1274.21 313.055ZM1054.89 412.771C1057.44 412.771 1062 412.953 1068.57 413.316C1075.49 413.316 1082.97 413.316 1090.99 413.316C1099.01 413.316 1106.67 413.498 1113.96 413.861C1121.62 413.861 1127.45 413.861 1131.46 413.861C1150.06 413.861 1165.74 412.59 1178.5 410.047C1191.26 407.504 1201.47 402.782 1209.13 395.879C1217.15 388.614 1222.8 378.443 1226.08 365.365C1229.73 351.924 1231.55 334.487 1231.55 313.055C1231.55 283.993 1228.45 262.016 1222.25 247.122C1216.42 231.865 1206.39 221.512 1192.17 216.063C1178.32 210.614 1158.81 207.889 1133.65 207.889C1128.55 207.889 1121.25 207.889 1111.77 207.889C1102.66 207.889 1093.54 208.071 1084.43 208.434C1075.31 208.434 1068.2 208.797 1063.1 209.524C1060.54 210.977 1058.54 212.975 1057.08 215.518C1055.62 217.697 1054.89 222.238 1054.89 229.14V412.771Z" fill="#2A2A2A"/>
<path d="M1382.28 411.682H1565.5C1565.5 417.494 1565.32 422.035 1564.95 425.304C1564.59 428.573 1563.68 431.116 1562.22 432.933C1560.76 434.386 1558.39 435.294 1555.11 435.657C1552.19 436.02 1547.82 436.202 1541.98 436.202H1325.94V410.047C1326.31 410.047 1329.41 406.777 1335.24 400.239C1341.08 393.7 1348.92 384.981 1358.76 374.083C1368.61 362.822 1379.36 350.653 1391.03 337.575C1403.06 324.134 1415.28 310.512 1427.67 296.708C1440.07 282.904 1451.56 270.008 1462.13 258.02C1473.07 245.669 1482.37 235.316 1490.02 226.961C1494.04 222.965 1497.5 219.514 1500.42 216.608C1503.33 213.338 1505.34 211.159 1506.43 210.069H1335.79C1335.79 203.893 1335.97 199.171 1336.34 195.901C1336.7 192.269 1337.98 189.726 1340.16 188.273C1342.72 186.456 1346.73 185.548 1352.2 185.548H1562.22C1562.22 185.912 1562.04 187.546 1561.67 190.452C1561.67 193.359 1561.13 197.173 1560.03 201.895C1559.3 206.254 1557.66 210.977 1555.11 216.063C1552.56 220.785 1548.91 225.326 1544.17 229.685L1387.75 407.867L1382.28 411.682Z" fill="#2A2A2A"/>
<path d="M1701.97 436.202V334.306L1609.54 199.171L1599.69 185.548H1655.48L1732.05 304.881L1809.72 185.548H1848L1835.97 200.805L1743.54 334.306V417.131C1743.9 421.853 1743.54 425.667 1742.44 428.573C1741.35 431.116 1739.53 433.114 1736.97 434.567C1734.42 435.657 1730.41 436.202 1724.94 436.202H1701.97Z" fill="#2A2A2A"/>
<defs>
<linearGradient id="paint0_linear_174_417" x1="233.012" y1="17.8549" x2="233.012" y2="603.893" gradientUnits="userSpaceOnUse">
<stop stop-color="#B5920A"/>
<stop offset="0.5" stop-color="#BEA74E"/>
<stop offset="1" stop-color="#6F5903"/>
</linearGradient>
</defs>
</svg>
