<svg width="1440" height="1440" viewBox="0 0 1440 1440" fill="none" xmlns="http://www.w3.org/2000/svg">
<path d="M481.832 1324.35C467.777 1324.35 455.555 1324.35 445.166 1324.35C434.981 1324.35 426.426 1324.25 419.5 1324.05C412.778 1324.05 407.278 1323.94 403 1323.74V1197.19C403 1191.28 404.222 1187.51 406.667 1185.88C409.315 1184.25 412.879 1183.33 417.361 1183.13C422.25 1183.13 426.833 1183.13 431.111 1183.13C435.388 1182.93 439.361 1182.83 443.027 1182.83C446.694 1182.62 450.36 1182.52 454.027 1182.52C457.694 1182.52 461.564 1182.52 465.638 1182.52C470.323 1182.52 475.11 1182.62 479.999 1182.83C484.888 1182.83 489.573 1182.93 494.054 1183.13C498.536 1183.13 502.1 1183.23 504.748 1183.44C516.156 1184.25 524.405 1187.51 529.498 1193.22C534.794 1198.72 537.442 1206.77 537.442 1217.37C537.442 1225.31 536.118 1231.73 533.47 1236.62C531.026 1241.31 527.868 1244.67 523.998 1246.71C520.128 1248.75 516.359 1249.97 512.693 1250.38C516.359 1250.38 519.924 1250.79 523.387 1251.6C527.054 1252.21 530.313 1253.74 533.165 1256.19C536.22 1258.43 538.665 1261.89 540.498 1266.58C542.331 1271.06 543.248 1277.18 543.248 1284.92C543.248 1294.29 541.516 1301.73 538.053 1307.23C534.591 1312.53 530.007 1316.4 524.304 1318.85C518.6 1321.29 512.082 1322.82 504.748 1323.43C497.415 1324.05 489.776 1324.35 481.832 1324.35ZM475.721 1312.12C481.221 1312.12 486.517 1311.92 491.61 1311.51C496.906 1311.11 501.591 1310.09 505.665 1308.46C509.943 1306.83 513.304 1304.07 515.748 1300.2C518.193 1296.33 519.415 1290.93 519.415 1284C519.415 1274.02 517.174 1267.19 512.693 1263.52C508.415 1259.65 499.86 1257.71 487.026 1257.71H439.361C436.712 1257.71 434.981 1256.7 434.166 1254.66C433.351 1252.62 432.944 1249.56 432.944 1245.49H486.11C490.999 1245.49 495.48 1244.88 499.554 1243.65C503.832 1242.43 507.295 1239.88 509.943 1236.01C512.591 1231.94 513.915 1226.03 513.915 1218.28C513.915 1211.15 512.285 1205.65 509.026 1201.78C505.767 1197.7 500.471 1195.36 493.137 1194.75C489.063 1194.34 484.582 1194.14 479.693 1194.14C474.804 1193.93 470.017 1193.83 465.332 1193.83C459.221 1193.83 453.416 1193.83 447.916 1193.83C442.62 1193.83 438.138 1193.93 434.472 1194.14C432.231 1194.14 430.296 1194.85 428.666 1196.27C427.24 1197.5 426.527 1199.64 426.527 1202.69V1311.51C427.953 1311.51 429.787 1311.61 432.027 1311.82C434.472 1311.82 437.425 1311.92 440.888 1312.12C444.555 1312.12 449.138 1312.12 454.638 1312.12C460.342 1312.12 467.369 1312.12 475.721 1312.12Z" fill="black"/>
<path d="M594.817 1323.74C594.817 1301.94 594.817 1280.13 594.817 1258.33C594.817 1236.52 594.817 1214.72 594.817 1192.91C594.817 1190.67 594.918 1188.94 595.122 1187.72C595.53 1186.29 596.243 1185.17 597.261 1184.35C598.483 1183.54 600.418 1183.13 603.067 1183.13H618.344V1323.74H594.817Z" fill="black"/>
<path d="M822.808 1254.66C822.808 1271.37 820.974 1284.51 817.308 1294.09C813.641 1303.46 808.345 1310.29 801.419 1314.57C794.697 1318.85 786.345 1321.6 776.364 1322.82C766.586 1323.84 755.485 1324.35 743.059 1324.35C737.152 1324.35 730.939 1324.25 724.42 1324.05C718.106 1324.05 711.791 1324.05 705.476 1324.05C699.365 1324.05 693.763 1323.94 688.671 1323.74C683.782 1323.74 679.81 1323.74 676.754 1323.74V1202.69C676.754 1196.17 677.569 1191.38 679.199 1188.33C681.032 1185.27 685.615 1183.54 692.949 1183.13C696.208 1182.93 700.485 1182.83 705.782 1182.83C711.078 1182.83 716.68 1182.83 722.587 1182.83C728.698 1182.62 734.605 1182.52 740.309 1182.52C746.013 1182.52 750.8 1182.62 754.67 1182.83C765.873 1183.23 775.651 1184.15 784.003 1185.58C792.558 1187 799.688 1190.06 805.391 1194.75C811.299 1199.43 815.678 1206.57 818.53 1216.14C821.382 1225.52 822.808 1238.36 822.808 1254.66ZM700.282 1310.6C701.708 1310.6 704.254 1310.7 707.921 1310.9C711.791 1310.9 715.967 1310.9 720.448 1310.9C724.93 1310.9 729.207 1311 733.281 1311.21C737.559 1311.21 740.818 1311.21 743.059 1311.21C753.448 1311.21 762.207 1310.49 769.336 1309.07C776.466 1307.64 782.169 1304.99 786.447 1301.12C790.929 1297.04 794.086 1291.34 795.919 1284C797.956 1276.46 798.975 1266.68 798.975 1254.66C798.975 1238.36 797.243 1226.03 793.78 1217.67C790.521 1209.11 784.919 1203.31 776.975 1200.25C769.234 1197.19 758.336 1195.66 744.281 1195.66C741.429 1195.66 737.355 1195.66 732.059 1195.66C726.967 1195.66 721.874 1195.77 716.782 1195.97C711.689 1195.97 707.717 1196.17 704.865 1196.58C703.439 1197.4 702.319 1198.52 701.504 1199.94C700.689 1201.17 700.282 1203.71 700.282 1207.58V1310.6Z" fill="black"/>
<path d="M883.18 1309.98H985.54C985.54 1313.25 985.438 1315.79 985.234 1317.63C985.03 1319.46 984.521 1320.89 983.706 1321.91C982.892 1322.72 981.568 1323.23 979.734 1323.43C978.105 1323.64 975.66 1323.74 972.401 1323.74H851.708V1309.07C851.912 1309.07 853.644 1307.23 856.903 1303.57C860.162 1299.9 864.542 1295.01 870.041 1288.89C875.541 1282.58 881.551 1275.75 888.069 1268.41C894.791 1260.87 901.615 1253.23 908.541 1245.49C915.467 1237.74 921.883 1230.51 927.791 1223.79C933.902 1216.86 939.096 1211.05 943.374 1206.36C945.614 1204.12 947.55 1202.18 949.179 1200.55C950.809 1198.72 951.929 1197.5 952.54 1196.89H857.208C857.208 1193.42 857.31 1190.77 857.514 1188.94C857.718 1186.9 858.431 1185.47 859.653 1184.66C861.079 1183.64 863.319 1183.13 866.375 1183.13H983.706C983.706 1183.33 983.605 1184.25 983.401 1185.88C983.401 1187.51 983.095 1189.65 982.484 1192.3C982.077 1194.75 981.16 1197.4 979.734 1200.25C978.308 1202.9 976.271 1205.44 973.623 1207.89L886.236 1307.84L883.18 1309.98Z" fill="black"/>
<path d="M1061.78 1323.74V1266.58L1010.14 1190.77L1004.64 1183.13H1035.81L1078.58 1250.07L1121.97 1183.13H1143.36L1136.64 1191.69L1085 1266.58V1313.04C1085.2 1315.69 1085 1317.83 1084.39 1319.46C1083.78 1320.89 1082.76 1322.01 1081.33 1322.82C1079.91 1323.43 1077.67 1323.74 1074.61 1323.74H1061.78Z" fill="black"/>
<path d="M787.364 1105.68V852.44C695.139 857.131 626.718 915.008 579.093 977.739C553.539 1011.4 534.747 1045.52 522.335 1071.31C516.145 1084.17 511.586 1094.87 508.596 1102.29C507.103 1105.99 506.001 1108.87 505.29 1110.78C504.935 1111.74 504.678 1112.45 504.516 1112.91C504.435 1113.13 504.376 1113.3 504.343 1113.39C504.331 1113.42 504.321 1113.45 504.315 1113.47C500.016 1125.94 486.427 1132.56 473.961 1128.26C461.496 1123.96 454.876 1110.36 459.174 1097.89L481.745 1105.68C459.173 1097.89 459.175 1097.88 459.179 1097.87C459.18 1097.86 459.185 1097.86 459.188 1097.85C459.195 1097.83 459.201 1097.8 459.211 1097.77C459.231 1097.72 459.259 1097.64 459.29 1097.55C459.354 1097.37 459.443 1097.12 459.556 1096.8C459.783 1096.17 460.11 1095.27 460.536 1094.12C461.388 1091.83 462.644 1088.55 464.308 1084.42C467.636 1076.17 472.613 1064.5 479.31 1050.58C492.672 1022.82 513.048 985.75 541.063 948.849C592.998 880.44 673.939 809.316 787.364 804.614V732.524C753.888 710.81 721.972 690.756 697.659 675.671C684.204 667.323 673.09 660.503 665.346 655.775C661.475 653.411 658.444 651.568 656.388 650.321C655.361 649.698 654.577 649.221 654.052 648.903C653.79 648.745 653.591 648.628 653.46 648.548C653.394 648.509 653.342 648.479 653.31 648.46C653.295 648.451 653.285 648.441 653.278 648.436L653.268 648.432C643.372 642.464 639.166 630.262 643.284 619.462C647.403 608.661 658.664 602.363 670.019 604.505C685.513 607.43 706.738 605.116 731.03 596.22C755.02 587.435 780.419 572.788 803.597 553.208C850.165 513.868 885.257 456.944 885.257 391.512C885.257 292.595 816.633 233.302 720.841 199.11C633.984 168.108 530.632 160.437 455.481 163.329V1105.68C455.48 1118.87 444.791 1129.56 431.604 1129.56C418.418 1129.56 407.728 1118.87 407.728 1105.68V140.717C407.728 128.187 417.408 117.786 429.902 116.893C509.931 111.174 632.887 116.996 736.892 154.12C840.866 191.233 933.01 262.914 933.01 391.512C933.01 474.726 888.514 543.997 834.403 589.708C807.242 612.653 777.027 630.247 747.445 641.08C744.226 642.258 740.992 643.355 737.755 644.382C753.593 654.275 771.65 665.645 790.717 677.859C794.883 670.871 802.516 666.192 811.24 666.192C824.427 666.192 835.117 676.885 835.117 690.077V706.657C896.65 747.122 961.573 792.331 991.004 821.576C998.244 828.77 1006.67 838.123 1010.33 848.172C1012.31 853.618 1014.44 863.683 1008.63 873.82C1002.91 883.798 993.293 887.173 987.567 888.361C976.715 890.613 963.039 888.594 949.402 885.534C934.576 882.208 915.541 876.578 891.87 868.493C871.963 861.693 853.055 857.216 835.117 854.689V1105.68C835.116 1118.87 824.427 1129.56 811.24 1129.56C798.054 1129.56 787.364 1118.87 787.364 1105.68ZM1119.25 627.975C1119.25 408.167 973.585 227.628 897.387 162.069L893.81 159.037L892.891 158.221C883.626 149.631 882.623 135.189 890.821 125.388C899.018 115.588 913.407 114.026 923.492 121.633L924.458 122.398L928.305 125.663C1010.35 196.199 1167 388.829 1167 627.975C1167 871.092 1005.15 1059.75 924.001 1124.37C913.683 1132.58 898.664 1130.87 890.452 1120.55C882.241 1110.23 883.95 1095.21 894.267 1086.99C969.109 1027.4 1119.25 851.096 1119.25 627.975ZM835.117 806.508C858.228 809.267 882.289 814.741 907.296 823.283C914.659 825.798 921.44 828.014 927.657 829.968C903.085 810.675 870.121 787.493 835.117 764V806.508Z" fill="url(#paint0_linear_176_435)" stroke="black" stroke-opacity="0.34" stroke-width="3" stroke-linecap="round" stroke-linejoin="round"/>
<defs>
<linearGradient id="paint0_linear_176_435" x1="1120.67" y1="47.3935" x2="383.616" y2="1061.02" gradientUnits="userSpaceOnUse">
<stop stop-color="#B5920A"/>
<stop offset="0.5" stop-color="#BEA74E"/>
<stop offset="1" stop-color="#6F5903"/>
</linearGradient>
</defs>
</svg>
